<?xml version="1.0" encoding="utf-8"?>
<!-- Generator: Adobe Illustrator 26.1.0, SVG Export Plug-In . SVG Version: 6.00 Build 0)  -->
<svg version="1.1" id="Capa_1" xmlns="http://www.w3.org/2000/svg" xmlns:xlink="http://www.w3.org/1999/xlink" x="0px" y="0px"
	 viewBox="0 0 2497 933" style="enable-background:new 0 0 2497 933;" xml:space="preserve">
<style type="text/css">
	.st0{clip-path:url(#SVGID_00000011733514329120309840000013206211158759655333_);fill:#BD1734;}
	.st1{clip-path:url(#SVGID_00000165935443668885683880000015519390947239606969_);fill:#F3D72F;}
	.st2{clip-path:url(#SVGID_00000041274684442768990560000009692316750260507299_);fill:#357C42;}
	.st3{fill:#1256A3;}
	.st4{fill:#030304;}
</style>
<g>
	<g id="Bolivia_2_">
		<g>
			<g>
				<g>
					<defs>
						<rect id="SVGID_1_" x="1866.2" y="322.4" width="281.5" height="168"/>
					</defs>
					<clipPath id="SVGID_00000005987895054425727950000009930334141901082757_">
						<use xlink:href="#SVGID_1_"  style="overflow:visible;"/>
					</clipPath>
					
						<rect x="1866.2" y="322.4" style="clip-path:url(#SVGID_00000005987895054425727950000009930334141901082757_);fill:#BD1734;" width="281.5" height="56"/>
				</g>
				<g>
					<defs>
						<rect id="SVGID_00000106108617327855605890000014764546880025306799_" x="1866.2" y="322.4" width="281.5" height="168"/>
					</defs>
					<clipPath id="SVGID_00000013907337408686081010000011917605212886685867_">
						<use xlink:href="#SVGID_00000106108617327855605890000014764546880025306799_"  style="overflow:visible;"/>
					</clipPath>
					
						<rect x="1866.2" y="378.4" style="clip-path:url(#SVGID_00000013907337408686081010000011917605212886685867_);fill:#F3D72F;" width="281.5" height="56"/>
				</g>
				<g>
					<defs>
						<rect id="SVGID_00000081625430141514754120000001764192782279000212_" x="1866.2" y="322.4" width="281.5" height="168"/>
					</defs>
					<clipPath id="SVGID_00000088096958353074521600000016700373671296389301_">
						<use xlink:href="#SVGID_00000081625430141514754120000001764192782279000212_"  style="overflow:visible;"/>
					</clipPath>
					
						<rect x="1866.2" y="434.4" style="clip-path:url(#SVGID_00000088096958353074521600000016700373671296389301_);fill:#357C42;" width="281.5" height="56"/>
				</g>
			</g>
		</g>
	</g>
	<g>
		<path class="st3" d="M459.6,148.9c35.6,1.6,65.7-22.9,67.1-55S500.7,34.6,465,32.8s-65.7,22.9-67.1,55
			C396.5,119.8,424,147.2,459.6,148.9"/>
		<path class="st3" d="M633.3,33.3c0,0-33.4,59.2-108,101.5c-74.4,42.3-140.8,67-204.1,164.9c0,0,18.8-8.7,5.7,12.4
			c0,0,9.7-9.2,18.1-11.9c0,0,5.1-1.1,2.9,5.1c0,0,33.4-25.9,25-13.4c-5.1,7.5,26.6-23.9,30.2-20.8c0,0,1.1,1.9-3.7,9.1
			c0,0,75.4-45.5,103.5-57.4c122.5-52,148.5-137.9,137.4-186.4C640.5,36.3,640,26.6,633.3,33.3"/>
		<path class="st3" d="M378.7,451.6c0,0,5.2-127.4,84.5-192.4S618,206,649.4,203.8c0,0,64.4,1.7,96.5-9.1c0,0,4.6,56.8-153.5,84
			c0,0-52.2-0.8-96.5,58.7c0,0-44.1,49.6-85.1,151.9c0,0-0.3-14.8-6.2-4.3l-15.3,34.4l-0.5-32.4c0,0-2.7-8.1-6.4,3
			c0,0-2.9,3.8,2.1-39.3C384.9,450.8,383.6,441.6,378.7,451.6"/>
		<path class="st4" d="M323.3,503.1c-17.8-50.3-64.3-83.2-123.3-83.2c-90.2,0-146.5,65.4-146.5,156.2c0,97.8,70.3,169.7,152.4,169.7
			c42.6,0,95.1-14.6,131.8-80h10.3c-7,24.3-21.6,57.9-34.5,78.9c-34.5-4.9-58.4,14.6-122.1,14.6C81.7,759.3,2.9,687,2.9,586.9
			c0-104.8,81.1-180.5,194-180.5c68.1,0,97.3,21.6,114,21.6c5.9,0,8.6-1.6,9.7-3.2h8.1l4.9,78.4h-10.3"/>
		<path class="st4" d="M483.2,530.6c65.8,0,116.1,49.1,116.1,113.4c0,63.8-50.3,112.9-114.5,112.9c-67,0-118.3-48.7-118.3-111.8
			C366.4,570.7,426.9,530.6,483.2,530.6 M490.6,744.1c31.8,0,68.1-32.4,68.1-86.4c0-61.6-37.9-114-83.2-114
			c-35.6,0-68.5,36.7-68.5,83.2C407,692.2,444.2,744.1,490.6,744.1"/>
		<path class="st4" d="M674.3,706.9c0,28.2,7.6,33.6,37.9,33.6v10.2H599.8v-10.2c31.3,0,38.3-14,38.3-41.7V592.8
			c0-21-3.2-25.9-15.7-27.5l-21-2.7v-9.2l64.9-22.7h8.1v43.3c39-27.5,74.6-43.3,96.2-43.3c26.4,0,46,16.7,51.4,43.3
			c36.3-22.7,69.2-43.3,95.6-43.3c39,0,54.1,29.7,54.1,81.6c0,34.5,0,70.8-1.6,103.7c0,11.3,6.5,24.3,28.6,24.3h17.3v10.2H894.5
			v-10.2h4.9c15.6,0,22.7-2.7,27.5-7.6c8.1-8.1,8.6-39.4,8.6-76.7v-42.1c0-41.7-14-61.6-40.6-61.6c-16.7,0-38.3,8.1-71.9,30.2v124.2
			c0,27,6.5,33.6,33.4,33.6v10.2H745.8v-10.2c30.2,0,41-10.8,41-41.7v-99.9c0-34-21.2-46.4-40.1-46.4c-15.1,0-35.6,7-72.4,31.3
			L674.3,706.9"/>
		<path class="st4" d="M1063.5,841.4c0,27,13.5,35.1,36.3,35.1h13.5v10.2H985.8v-10.2h5.4c27.5,0,36.3-9.2,36.3-40.1V587.9
			c0-10.2-2.2-14.6-15.1-17.8l-17.3-4.3v-10.2l57.7-35.6h10.8v51.8c33.4-25.4,62-39.4,83.7-39.4c42.1,0,80,47.6,80,100.5
			c0,65.4-53,121.5-114.5,121.5c-14.6,0-28.6-3.2-49.1-10.8L1063.5,841.4 M1063.5,708.4c19.4,17.3,43.7,29.1,63.8,29.1
			c36.7,0,63.8-36.3,63.8-80.5c0-71.3-42.1-98.3-70.8-98.3c-16.7,0-37.2,9.7-56.6,26.4v123.3H1063.5z"/>
		<path class="st4" d="M1250.6,600.9c-1.1-3.3-1.6-4.9-1.6-7.6c0-18.9,44.9-62.7,80-62.7c16.2,0,41.7,7.6,56.8,28.6
			c8.1,11.3,8.1,18.3,8.1,46.4v72.4c0,43.3,0,53,14,53c5.9,0,13-0.5,26.4-11.9l2.7,8.1c-29.1,23.7-44.2,29.7-53.4,29.7
			c-22.1,0-24.3-24.3-24.8-32.9c-37.2,30.9-48,32.9-62.7,32.9c-31.3,0-50.3-17.8-50.3-44.2c0-32.9,29.1-44.4,63.8-53
			c11.3-2.7,29.1-9.2,48-20.5v-42.6c0-15.1,0-23.7-9.2-34.5c-7-8.6-18.4-15.7-30.2-15.7c-17.8,0-33.6,15.1-33.6,26.6
			c0,3.2,0.5,5.4,2.7,10.3L1250.6,600.9 M1357.4,650.1c-10.3,5.9-18.9,9.7-31.8,15.1c-32.9,13.5-45.3,18.9-45.3,41
			c0,19.4,15.6,31.8,31.8,31.8c8.6,0,15.1-2.7,45.3-23.7V650.1z"/>
		<path class="st4" d="M1460.2,696c6.5,32.4,27,50.7,51.4,50.7c21.6,0,38.3-16.2,38.3-35.6c0-11.3-2.7-18.3-17.3-32.9
			c-38.3-38.3-81.1-42.1-81.1-87c0-35.6,28.2-60.6,69.2-60.6c14.6,0,29.7,3.2,43.3,8.6l1.1,49.1h-9.2c-3.8-27.5-21.6-44.9-43.3-44.9
			c-17.8,0-32.9,12.4-32.9,30.2c0,47.6,100.5,55.7,100.5,121.5c0,35.1-29.1,61.6-67,61.6c-10.2,0-17.8-1.6-23.7-3.8
			c-5.9-1.6-10.3-3.2-14.6-3.2c-3.2,0-6.5,2.2-9.2,6.5h-8.1l-5.9-60.6h8.6"/>
		<path class="st4" d="M1613,696c6.5,32.4,27,50.7,51.4,50.7c21.6,0,38.3-16.2,38.3-35.6c0-11.3-2.7-18.3-17.3-32.9
			c-38.3-38.3-81.1-42.1-81.1-87c0-35.6,28.2-60.6,69.2-60.6c14.6,0,29.7,3.2,43.3,8.6l1.1,49.1h-9.2c-3.8-27.5-21.6-44.9-43.3-44.9
			c-17.8,0-32.9,12.4-32.9,30.2c0,47.6,100.5,55.7,100.5,121.5c0,35.1-29.1,61.6-67,61.6c-10.3,0-17.8-1.6-23.9-3.8
			c-5.9-1.6-10.3-3.2-14.6-3.2c-3.2,0-6.5,2.2-9.2,6.5h-8.1l-5.9-60.6h8.7"/>
		<path class="st4" d="M1830.6,709.6c0,18.9,10.3,30.9,38.8,30.9v10.2h-119.9v-10.2c32.9,0,44.9-10.8,44.9-39.4V592.3
			c0-21.2-2.7-23.7-16.7-26.6l-25.4-4.9v-8.6l70.3-24.3h8.1L1830.6,709.6"/>
		<path class="st4" d="M1983,530.6c65.8,0,116.1,49.1,116.1,113.4c0,63.8-50.3,112.9-114.5,112.9c-67,0-118.3-48.7-118.3-111.8
			C1866.2,570.7,1926.8,530.6,1983,530.6 M1990.6,744.1c31.8,0,68.1-32.4,68.1-86.4c0-61.6-37.9-114-83.2-114
			c-35.6,0-68.5,36.7-68.5,83.2C1906.8,692.2,1944.2,744.1,1990.6,744.1"/>
		<path class="st4" d="M2171.7,703.7c0,29.7,7,36.7,36.3,36.7v10.2h-108.6v-10.2c23.9,0,36.3-12.9,36.3-34V593
			c0-20-2.2-23.7-16.2-26.4l-18.4-3.8v-8.6l62.2-22.7h8.6v42.1c36.3-22.7,66.5-42.6,92.9-42.6c36.7,0,57.9,27,57.9,81.1
			c0,71.9-3.8,85.9-4.3,107c-0.5,14.6,8.1,21.6,30.2,21.6h11.9v10.2h-116.1v-10.2c15.6-0.5,24.8-4.3,30.9-10.2
			c10.2-10.3,11.3-49.8,11.3-121.5c0-43.3-21-56.8-42.6-56.8c-17.3,0-43.7,15.1-71.9,34.5v116.9"/>
		<path class="st3" d="M1169.1,875c0,5.7,3,9.2,11.6,9.2v3h-35.9v-3c9.9,0,13.4-3.2,13.4-11.8V840c0-6.4-0.8-7.2-4.9-8l-7.6-1.4V828
			l21-7.3h2.4V875 M1162.4,784.3c3.8,0,7.2,2.7,7.2,6.2c0,3.3-3.2,6.2-7.2,6.2c-3.8,0-7-2.7-7-6.2
			C1155.6,787,1158.6,784.3,1162.4,784.3"/>
		<path class="st3" d="M1209.8,873.1c0,8.9,2.1,11,10.8,11v3h-32.4v-3c7.2,0,10.8-3.8,10.8-10.2V840c0-6-0.6-7.2-4.9-8l-5.6-1.1
			v-2.5l18.6-6.8h2.5v12.6c10.8-6.8,19.9-12.7,27.8-12.7c11,0,17.3,8.1,17.3,24.2c0,21.5-1.1,25.6-1.3,32c-0.2,4.3,2.4,6.5,9.1,6.5
			h3.5v3h-34.7v-3c4.8-0.2,7.5-1.3,9.2-3c3-3,3.3-14.8,3.3-36.3c0-12.9-6.4-17-12.7-17c-5.1,0-13,4.5-21.5,10.3V873.1"/>
		<path class="st3" d="M1322.4,870.5c0,32.4-13.2,54.2-33.4,54.2c-8.9,0-15.6-3.7-15.6-8.7c0-3.3,2.5-6.5,5.9-6.5
			c5.6,0,9.9,7.6,16.7,7.6c7.8,0,13.2-5.9,13.2-23.7v-86.2c0-14.2-1.4-17.5-13-17.5h-2.1v-3h40.9v3c-10.3,0.3-12.6,3.2-12.6,11.8
			V870.5"/>
		<path class="st3" d="M1350.8,846.2c-0.3,2.4-0.6,4.6-0.6,6.8c0,16.9,11.8,28.2,24.5,28.2c8.1,0,14.3-3.2,20.5-10.5l1.7,1.9
			c-6.8,8.6-17,16.7-28.8,16.7c-15.7,0-28.2-14.3-28.2-33.1c0-17.2,11.5-34.5,31.2-34.5c21.8,0,21.3,15.6,26.7,21v3.7h-47.1
			 M1384.3,841.9c-1.7-10.5-8.3-17.5-16.1-17.5c-5.4,0-13.4,2.4-17.2,17.5H1384.3z"/>
		<path class="st3" d="M1412.3,870.8c1.9,9.7,8.1,15.3,15.4,15.3c6.5,0,11.5-4.9,11.5-10.7c0-3.3-0.8-5.6-5.1-9.9
			c-11.5-11.5-24.2-12.6-24.2-25.9c0-10.7,8.4-18.1,20.7-18.1c4.3,0,8.9,1,12.9,2.5l0.3,14.6h-2.7c-1.1-8.3-6.5-13.4-12.9-13.4
			c-5.4,0-9.9,3.7-9.9,9.1c0,14.3,30.1,16.7,30.1,36.3c0,10.5-8.7,18.4-20,18.4c-3,0-5.2-0.5-7.2-1.1c-1.7-0.5-3-1-4.3-1
			c-1,0-1.9,0.6-2.7,1.9h-2.4l-1.7-18.1L1412.3,870.8"/>
		<path class="st3" d="M1530.6,882.4l-21.6,6.7v-12.9c-12.1,8.7-21,12.9-27.5,12.9c-8.1,0-17.2-5.6-17.2-16.5v-35.9
			c0-3.8-1-5.7-4.3-6.7l-5.7-1.6V826l20.8-4.6v45.2c0,10,7.3,14.5,14.6,14.5c5.6,0,12.6-3.3,19.2-8.9v-34.7c0-6.4-0.8-7.6-6-8.6
			l-8.1-1.4v-2.2l24.8-3.8v54.4c0,4.6,1.6,5.2,7.5,4.1l3.3-0.6v3.2"/>
		<path class="st3" d="M1543.7,870.8c1.9,9.7,8.1,15.3,15.4,15.3c6.5,0,11.5-4.9,11.5-10.7c0-3.3-0.8-5.6-5.1-9.9
			c-11.5-11.5-24.2-12.6-24.2-25.9c0-10.7,8.4-18.1,20.7-18.1c4.3,0,8.9,1,12.9,2.5l0.3,14.6h-2.7c-1.1-8.3-6.5-13.4-12.9-13.4
			c-5.4,0-9.9,3.7-9.9,9.1c0,14.3,30.1,16.7,30.1,36.3c0,10.5-8.7,18.4-20,18.4c-3,0-5.4-0.5-7.2-1.1c-1.7-0.5-3-1-4.3-1
			c-1,0-1.9,0.6-2.7,1.9h-2.4l-1.7-18.1L1543.7,870.8"/>
		<path class="st3" d="M1582,820.7c8.1-4.8,12.4-10.3,12.4-16.2c0-1.9-0.6-3.3-2.2-3.3c-1.4,0-2.1,0.5-4,0.5c-4.1,0-7.3-3-7.3-7.3
			c0-4.3,3.8-8,8.7-8c6.5,0,11.3,5.7,11.3,13.4c0,10-7.3,19.7-18,23.7L1582,820.7"/>
		<path class="st3" d="M1647.4,873.1c0,8.9,2.1,11,10.8,11v3h-32.4v-3c7.2,0,10.8-3.8,10.8-10.2V840c0-6-0.6-7.2-4.9-8l-5.6-1.1
			v-2.5l18.6-6.8h2.5v12.6c10.8-6.8,19.9-12.7,27.8-12.7c11,0,17.3,8.1,17.3,24.2c0,21.5-1.1,25.6-1.3,32c-0.2,4.3,2.4,6.5,9.1,6.5
			h3.5v3H1669v-3c4.6-0.2,7.5-1.3,9.2-3c3-3,3.3-14.8,3.3-36.3c0-12.9-6.4-17-12.7-17c-5.1,0-13,4.5-21.5,10.3L1647.4,873.1"/>
		<path class="st3" d="M1713.1,842.4c-0.3-1-0.5-1.4-0.5-2.2c0-5.7,13.4-18.8,23.9-18.8c4.9,0,12.4,2.2,17,8.6
			c2.4,3.3,2.4,5.6,2.4,13.8v21.6c0,12.9,0,15.7,4.1,15.7c1.7,0,4-0.2,8-3.5l0.8,2.4c-8.7,7.2-13.2,8.9-16.1,8.9
			c-6.7,0-7.3-7.3-7.5-9.9c-11.1,9.2-14.5,9.9-18.8,9.9c-9.4,0-15-5.4-15-13.2c0-9.9,8.7-13.2,19.1-15.7c3.3-0.8,8.7-2.7,14.3-6.2
			v-12.7c0-4.6,0-7.2-2.7-10.3c-2.1-2.5-5.6-4.6-9.1-4.6c-5.2,0-10,4.6-10,8c0,1,0.2,1.6,0.8,3L1713.1,842.4 M1745,857.1
			c-3,1.7-5.7,2.9-9.5,4.5c-9.9,4-13.5,5.7-13.5,12.2c0,5.7,4.6,9.5,9.5,9.5c2.5,0,4.6-0.8,13.5-7.2V857.1z"/>
		<path class="st3" d="M1795.3,874c0,8.4,2.2,10,11.3,10v3H1773v-3c9.4,0,11.5-4.1,11.5-12.4V840c0-6.4-1-7.8-4.8-8.3l-6.4-0.8v-2.7
			l19.4-6.8h2.4v12.9c11.6-8.3,22.3-12.9,28.8-12.9c8,0,13.7,4.9,15.4,12.9c10.8-6.8,20.7-12.9,28.6-12.9c11.6,0,16.1,8.9,16.1,24.3
			c0,10.3,0,21.2-0.5,31c0,3.3,1.9,7.3,8.6,7.3h5.2v3h-36.3v-3h1.4c4.6,0,6.7-0.8,8.3-2.2c2.4-2.4,2.5-11.8,2.5-22.9v-12.6
			c0-12.4-4.1-18.4-12.1-18.4c-4.9,0-11.5,2.4-21.5,9.1V874c0,8.1,1.9,10,10,10v3h-33.1v-3c9.1,0,12.2-3.2,12.2-12.4v-29.9
			c0-10.2-6.4-13.8-11.9-13.8c-4.5,0-10.7,2.1-21.6,9.4V874"/>
		<path class="st3" d="M1913.1,846.2c-0.3,2.4-0.6,4.6-0.6,6.8c0,16.9,11.8,28.2,24.5,28.2c8.1,0,14.3-3.2,20.5-10.5l1.7,1.9
			c-6.7,8.6-17,16.7-28.8,16.7c-15.7,0-28.2-14.3-28.2-33.1c0-17.2,11.5-34.5,31.2-34.5c21.8,0,21.3,15.6,26.7,21v3.7h-47.1
			 M1946.7,841.9c-1.7-10.5-8.3-17.5-16.1-17.5c-5.2,0-13.4,2.4-17.2,17.5H1946.7z"/>
		<path class="st3" d="M490.2,477.8c0,6.4,2.5,8,8.4,8h2.4v2.1h-29.9v-2.1h1.7c6.2,0,8.4-1.7,8.4-8.7v-44.5c0-6.5-1.7-8.4-8-8.4
			h-2.4V422c2.5,0,9.1-0.5,13.4-0.6c4.3-0.2,6.5-0.3,13.4-0.3c19.6,0,28.3,8,28.3,18.8c0,8-5.4,14.6-14,17.2c4,3,7,6,12.1,11
			l8.3,8.3c6.2,6.2,12.7,10.2,20.8,10.7v1.9c-18.4,0.8-23.2-3.2-32.6-12.6l-7-7c-4.6-4.6-8.4-7.8-11-9.4c-2.7,0.2-4.3,0.2-7.2,0.2
			c-2.4,0-3.7-0.2-5.4-0.2v18 M490.2,457.9c2.5,0.3,4.1,0.2,6.5,0.2c11.8,0,19.4-4.9,19.4-17.7c0-9.9-4.5-17.5-20.7-17.5
			c-2.1,0-3.3,0-5.2,0.2L490.2,457.9L490.2,457.9z"/>
		<path class="st3" d="M560,461c-0.2,1.6-0.5,3-0.5,4.5c0,11,7.8,18.4,16.1,18.4c5.2,0,9.4-2.1,13.4-6.8l1.1,1.3
			c-4.5,5.6-11.1,11-18.8,11c-10.3,0-18.4-9.4-18.4-21.6c0-11.3,7.5-22.6,20.4-22.6c14.3,0,14,10.2,17.5,13.7v2.4H560 M581.9,458.3
			c-1.1-6.8-5.4-11.5-10.5-11.5c-3.5,0-8.7,1.6-11.1,11.5H581.9z"/>
		<path class="st3" d="M607.9,479.4c0,4.3,2.1,6.4,6,6.4h1.7v2.1H592v-2.1c6.7,0,8.7-2.1,8.7-7.2v-50.9c0-3-0.3-4-3.3-4.1l-4.8-0.5
			v-1.9l13.5-4.3h1.6v62.5"/>
		<path class="st3" d="M625.8,461c-0.2,1.6-0.5,3-0.5,4.5c0,11,7.6,18.4,16.1,18.4c5.2,0,9.4-2.1,13.4-6.8l1.1,1.3
			c-4.5,5.6-11.1,11-18.8,11c-10.3,0-18.4-9.4-18.4-21.6c0-11.3,7.5-22.6,20.4-22.6c14.3,0,14,10.2,17.5,13.7v2.4h-30.7
			 M647.8,458.3c-1.1-6.8-5.4-11.5-10.5-11.5c-3.5,0-8.7,1.6-11.1,11.5H647.8z"/>
		<path class="st3" d="M664.8,458.6c-0.2-0.6-0.3-1-0.3-1.4c0-3.7,8.7-12.2,15.6-12.2c3.2,0,8.1,1.4,11.1,5.6
			c1.6,2.2,1.6,3.7,1.6,9.1v14.2c0,8.4,0,10.3,2.7,10.3c1.1,0,2.5-0.2,5.2-2.4l0.5,1.6c-5.7,4.6-8.7,5.9-10.5,5.9
			c-4.3,0-4.8-4.8-4.8-6.5c-7.3,6-9.4,6.5-12.2,6.5c-6,0-9.9-3.5-9.9-8.7c0-6.5,5.7-8.6,12.4-10.3c2.2-0.5,5.7-1.7,9.4-4v-8.3
			c0-3,0-4.6-1.7-6.7c-1.4-1.7-3.7-3-5.9-3c-3.5,0-6.5,3-6.5,5.2c0,0.6,0.2,1.1,0.5,2.1L664.8,458.6 M685.8,468.1
			c-2.1,1.1-3.7,1.9-6.2,3c-6.5,2.7-8.9,3.7-8.9,8.1c0,3.8,3,6.2,6.2,6.2c1.7,0,3-0.5,8.9-4.6V468.1z"/>
		<path class="st3" d="M708.4,477.2c1.3,6.4,5.2,9.9,10,9.9c4.3,0,7.5-3.2,7.5-7c0-2.2-0.5-3.7-3.3-6.4c-7.5-7.5-15.9-8.3-15.9-17
			c0-7,5.6-11.8,13.5-11.8c2.9,0,5.7,0.6,8.4,1.7l0.2,9.7H727c-0.8-5.4-4.3-8.7-8.4-8.7c-3.5,0-6.4,2.4-6.4,5.9
			c0,9.4,19.7,11,19.7,23.9c0,6.8-5.7,12.1-13,12.1c-2.1,0-3.5-0.3-4.6-0.8c-1.1-0.3-2.1-0.6-2.9-0.6c-0.6,0-1.3,0.5-1.7,1.3h-1.6
			l-1.1-11.8h1.4"/>
		<path class="st3" d="M753.1,479.7c0,3.7,2.1,6,7.6,6v2.1h-23.5v-2.1c6.5,0,8.7-2.1,8.7-7.8v-21.2c0-4.1-0.5-4.6-3.3-5.2l-4.9-1
			v-1.7l13.7-4.8h1.6v35.6 M748.8,420.4c2.5,0,4.6,1.7,4.6,4c0,2.2-2.1,4-4.6,4c-2.5,0-4.6-1.7-4.6-4
			C744.2,422.3,746.2,420.4,748.8,420.4"/>
		<path class="st3" d="M781.1,478.6c0,5.9,1.4,7.2,7,7.2v2.1h-21.3v-2.1c4.6,0,7.2-2.5,7.2-6.7V457c0-4-0.5-4.6-3.2-5.2l-3.7-0.8
			v-1.7l12.1-4.5h1.7v8.3c7-4.5,13-8.4,18.1-8.4c7.2,0,11.3,5.2,11.3,15.9c0,14-0.8,16.7-0.8,21c-0.2,2.9,1.6,4.1,5.9,4.1h2.4v2.1
			h-22.7v-2.1c3-0.2,4.9-0.8,6-2.1c2.1-1.9,2.2-9.7,2.2-23.7c0-8.4-4.1-11.1-8.4-11.1c-3.3,0-8.6,3-14,6.8v23.1"/>
		<path class="st3" d="M869.2,454.6c-1.6-0.2-6.5-0.5-10.5-1.3c0.6,1.1,1.7,3.3,1.7,6.8c0,7.8-6.7,15.4-18.4,15.4
			c-2.1,0-3-0.2-4.9-0.8c-1.7,1.7-6.5,3-6.5,5.4c0,2.7,4.6,3.7,15.1,3.8c11.9,0.2,16.1,0.6,19.2,3.8c2.5,2.5,3.2,5.1,3.2,7.3
			c0,6.8-9.4,17.5-28.9,17.5c-11,0-16.2-4.8-16.2-10c0-6,6.5-7,11.3-13c-5.7-0.5-10-4.1-10-7.5c0-4.9,7.2-5.1,10.8-7.8
			c-6.4-2.5-10.2-7-10.2-13c0-9.1,8.1-16.2,18.6-16.2c4.9,0,9.1,1.4,11.9,4.3c4.8,0,9.2-0.5,13.8-1.1V454.6 M842.3,446.8
			c-4,0-10.2,2.2-10.2,12.1c0,6.2,3.2,14.6,11.1,14.6c6.2,0,10.2-5.1,10.2-12.4C853.3,451.9,848.7,446.8,842.3,446.8 M845.2,509.5
			c8.9,0,17.5-5.9,17.5-12.6c0-4-3.3-5.9-7.2-6.2c-2.7-0.3-16.1-0.5-19.1-0.8c-3,3.5-6.8,4.9-6.8,9.1
			C829.6,503.9,836.6,509.5,845.2,509.5"/>
		<path class="st3" d="M939.6,478.1c-4.5,7.2-10.2,11-18.8,11c-12.7,0-17.8-12.1-17.8-20.4c0-13.2,11-23.9,24.3-23.9
			c6.7,0,11.8,2.7,11.8,6c0,1.7-1.3,3.2-3,3.2c-5.1,0-6.4-6.5-12.4-6.5c-7.3,0-13.7,8.6-13.7,18.8c0,10.5,6.4,18.4,15,18.4
			c5.1,0,9.1-2.4,12.9-7.6L939.6,478.1"/>
		<path class="st3" d="M960.3,479.4c0,4.9,1.4,6.4,6.8,6.4v2.1H946v-2.1c5.9-0.3,7.2-2.4,7.2-8.1v-50.6c0-2.4-0.5-3.2-2.7-3.5
			l-4.6-0.6V421l12.6-4.3h1.7v34.7c7-4.1,12.1-6.7,17.5-6.7c8.1,0,11.8,5.1,11.8,15.7c0,9.5-0.2,15.6-0.5,21.3c0.2,2.9,1.7,4,8.1,4
			v2.1h-22.7v-2.1c2.7,0,4.8-0.5,5.9-1.7c1.9-1.9,2.4-6.5,2.4-22.3c0-11.3-6.2-12.7-9.5-12.7c-3.5,0-7.3,1.6-12.6,4.9v25.4"/>
		<path class="st3" d="M1014.7,479.7c0,3.7,2.1,6,7.6,6v2.1h-23.5v-2.1c6.5,0,8.7-2.1,8.7-7.8v-21.2c0-4.1-0.5-4.6-3.3-5.2l-4.9-1
			v-1.7l13.7-4.8h1.6v35.6 M1010.4,420.4c2.5,0,4.6,1.7,4.6,4c0,2.2-2.1,4-4.6,4c-2.5,0-4.6-1.7-4.6-4
			C1005.8,422.3,1007.9,420.4,1010.4,420.4"/>
		<path class="st3" d="M1040.9,479.4c0,4.3,2.1,6.4,6,6.4h1.7v2.1h-23.9v-2.1c6.7,0,8.7-2.1,8.7-7.2v-50.9c0-3-0.3-4-3.3-4.1
			l-4.8-0.5v-1.9l13.5-4.3h1.6v62.5"/>
		<path class="st3" d="M1086.1,426.3c0-2.1-0.8-2.5-4.1-3l-3.5-0.3v-1.7l14.6-4.3v62c0,3.7,2.2,4.3,5.1,3.5l2.5-0.8v2.2l-13.5,5.2
			h-1.3v-7.5c-6.8,4.9-12.4,7.5-16.4,7.5c-9.4,0-16.9-9.1-16.9-20.4c0-13.2,10-23.9,22.9-23.9c3.2,0,7.5,0.8,10.3,2.1v-20.7
			 M1086.1,455.6c-3.8-5.6-7.6-8-12.6-8c-8.3,0-13.7,7.5-13.7,17.5c0,10.5,6.2,19.4,13.7,19.4c3.3,0,7.8-2.1,12.6-5.2V455.6z"/>
		<path class="st3" d="M1121.1,480.1c0,4.3,1.6,5.7,6.8,5.7h4v2.1h-25v-2.1c5.4-0.2,7.2-2.2,7.2-8v-24.3l-7.2-2.5v-1.7l12.1-4.3h2.1
			V456h0.2c5.2-8.6,6.5-10.7,10-10.7c1.3,0,1.6,0.2,3.7,1c1.1,0.5,3,0.8,5.6,1.6l-2.5,6.4c-1.6-0.2-3.7-0.8-5.6-1.7
			c-1.1-0.5-2.4-1.1-3.7-1.1c-1.9,0-3,1.3-4.1,2.7c-1.4,1.9-2.5,3.7-3.3,5.2v20.7"/>
		<path class="st3" d="M1151.3,461c-0.2,1.6-0.5,3-0.5,4.5c0,11,7.6,18.4,16.1,18.4c5.2,0,9.4-2.1,13.4-6.8l1.1,1.3
			c-4.5,5.6-11.1,11-18.8,11c-10.3,0-18.4-9.4-18.4-21.6c0-11.3,7.5-22.6,20.4-22.6c14.3,0,14,10.2,17.5,13.7v2.4h-30.7
			 M1173.3,458.3c-1.1-6.8-5.4-11.5-10.5-11.5c-3.5,0-8.7,1.6-11.1,11.5H1173.3z"/>
		<path class="st3" d="M1201.1,478.6c0,5.9,1.4,7.2,7.2,7.2v2.1h-21.3v-2.1c4.6,0,7.2-2.5,7.2-6.7V457c0-4-0.5-4.6-3.2-5.2l-3.7-0.8
			v-1.7l12.1-4.5h1.7v8.3c7.2-4.5,13-8.4,18.1-8.4c7.2,0,11.3,5.2,11.3,15.9c0,14-0.8,16.7-0.8,21c-0.2,2.9,1.6,4.1,5.9,4.1h2.4v2.1
			h-22.7v-2.1c3-0.2,4.9-0.8,6-2.1c2.1-1.9,2.2-9.7,2.2-23.7c0-8.4-4.1-11.1-8.4-11.1c-3.3,0-8.6,3-14,6.8V478.6"/>
		<path class="st3" d="M1295.1,450.6h-11.5v28.9c0,4.9,1.9,6.2,7.8,6.2h4v2.1h-26.1v-2.1c6.2,0,7.2-1.4,7.2-7.3v-27.8h-7.8v-1.7
			c3-0.6,5.6-1.6,7.8-2.9c0-8.7,1.9-15.4,8.1-21.6c5.1-5.1,10.2-7.5,15-7.5c5.9,0,11,3.3,11,4.9c0,0.8-2.1,5.1-2.9,5.1
			c-1.4,0-5.4-5.2-12.4-5.2c-7.6,0-11.8,6-11.8,16.2v8.1h10.7L1295.1,450.6"/>
		<path class="st3" d="M1317,480.1c0,4.3,1.6,5.7,6.8,5.7h4v2.1h-25v-2.1c5.4-0.2,7.2-2.2,7.2-8v-24.3l-7.2-2.5v-1.7l12.1-4.3h2.1
			V456h0.2c5.2-8.6,6.5-10.7,10-10.7c1.3,0,1.6,0.2,3.7,1c1.1,0.5,3,0.8,5.6,1.6l-2.5,6.4c-1.6-0.2-3.7-0.8-5.6-1.7
			c-1.1-0.5-2.4-1.1-3.7-1.1c-1.9,0-3,1.3-4.1,2.7c-1.4,1.9-2.5,3.7-3.3,5.2v20.7"/>
		<path class="st3" d="M1360,444.7c12.9,0,22.7,9.5,22.7,22.3c0,12.4-9.9,22.1-22.4,22.1c-13,0-23.2-9.5-23.2-21.9
			C1337.1,452.5,1349,444.7,1360,444.7 M1361.4,486.6c6.2,0,13.4-6.4,13.4-16.9c0-12.1-7.5-22.3-16.2-22.3c-7,0-13.5,7.2-13.5,16.2
			C1345,476.4,1352.3,486.6,1361.4,486.6"/>
		<path class="st3" d="M1402.8,479.3c0,5.6,1.4,6.5,7.5,6.5v2.1h-21.9v-2.1c6,0,7.5-2.7,7.5-8.1V457c0-4.1-0.6-5.1-3-5.4l-4.1-0.5
			v-1.7l12.7-4.5h1.6v8.4c7.6-5.4,14.6-8.4,18.8-8.4c5.2,0,8.9,3.3,10,8.4c7-4.5,13.5-8.4,18.8-8.4c7.6,0,10.5,5.9,10.5,15.9
			c0,6.8,0,13.8-0.3,20.4c0,2.2,1.3,4.8,5.6,4.8h3.3v2.1h-23.9v-2.1h1c3,0,4.5-0.5,5.4-1.4c1.6-1.6,1.7-7.8,1.7-15v-8.4
			c0-8.1-2.7-12.1-8-12.1c-3.3,0-7.5,1.6-14,5.9v24.3c0,5.2,1.3,6.5,6.5,6.5v2.1h-21.6v-2.1c5.9,0,8-2.1,8-8.1v-19.6
			c0-6.7-4.1-9.1-7.8-9.1c-3,0-7,1.4-14.2,6.2L1402.8,479.3"/>
		<path class="st3" d="M1514.9,503.6c0,5.2,2.7,6.8,7,6.8h2.7v2.1h-25v-2.1h1c5.4,0,7.2-1.7,7.2-7.8V456c0-2.1-0.5-2.9-3-3.5
			l-3.3-0.8v-2.1l11.3-7h2.1v10.2c6.5-4.9,12.1-7.6,16.4-7.6c8.3,0,15.6,9.2,15.6,19.7c0,12.9-10.3,23.9-22.4,23.9
			c-2.9,0-5.6-0.6-9.5-2.1v16.9 M1514.9,479.6c3.8,3.3,8.6,5.7,12.4,5.7c7.2,0,12.6-7.2,12.6-15.7c0-14-8.3-19.2-13.8-19.2
			c-3.3,0-7.3,1.9-11.1,5.2V479.6z"/>
		<path class="st3" d="M1579.5,444.7c12.9,0,22.7,9.5,22.7,22.3c0,12.4-9.9,22.1-22.4,22.1c-13,0-23.2-9.5-23.2-21.9
			C1556.7,452.5,1568.5,444.7,1579.5,444.7 M1581.1,486.6c6.2,0,13.4-6.4,13.4-16.9c0-12.1-7.3-22.3-16.2-22.3
			c-7,0-13.5,7.2-13.5,16.2C1564.5,476.4,1572,486.6,1581.1,486.6"/>
		<path class="st3" d="M1626.5,488.8l-15.3-35.1c-1.6-3.7-3-4.9-4.6-5.2l-3.3-0.5V446h21.6v1.9c-6.5,0.2-8.4,1.1-5.9,6l11.1,26.4
			l10.8-24.5c1.9-4.3,1-7.5-6.8-8V446h18.4v1.9c-4,0.8-6.4,3-8.4,7.8l-14.6,33.2h-3"/>
		<path class="st3" d="M1662.3,461c-0.2,1.6-0.5,3-0.5,4.5c0,11,7.8,18.4,16.1,18.4c5.2,0,9.4-2.1,13.4-6.8l1.1,1.3
			c-4.5,5.6-11.1,11-18.8,11c-10.3,0-18.4-9.4-18.4-21.6c0-11.3,7.5-22.6,20.4-22.6c14.3,0,14,10.2,17.5,13.7v2.4h-30.7
			 M1684.3,458.3c-1.1-6.8-5.4-11.5-10.5-11.5c-3.5,0-8.7,1.6-11.1,11.5H1684.3z"/>
		<path class="st3" d="M1715,480.1c0,4.3,1.6,5.7,6.8,5.7h4v2.1h-25v-2.1c5.4-0.2,7-2.2,7-8v-24.3l-7-2.5v-1.7l12.1-4.3h2.1V456h0.2
			c5.2-8.6,6.5-10.7,10-10.7c1.3,0,1.6,0.2,3.7,1c1.1,0.5,3,0.8,5.6,1.6l-2.5,6.4c-1.6-0.2-3.7-0.8-5.6-1.7
			c-1.1-0.5-2.4-1.1-3.7-1.1c-1.9,0-3,1.3-4.1,2.7c-1.4,1.9-2.5,3.7-3.3,5.2v20.7"/>
		<path class="st3" d="M1767.8,446l-1.7,4.6h-13.4v24.7c0,6.7,4.8,8.9,7,8.9c2.4,0,4.5-1.7,6.4-5.2l1.7,1.6
			c-2.5,5.6-6.7,8.7-11.5,8.7c-6.2,0-10.7-5.2-10.7-12.2v-26.2h-4.9V449c4.1-2.1,7.6-6.8,10.2-13.4h1.7v10.5h15.1"/>
		<path class="st3" d="M1808,457.6c3.2-8.1,1.1-9.7-5.1-9.9v-1.9h17.5v1.9c-4.3,0.5-6.7,3.5-8.7,8.4l-18,44.9
			c-3.2,7.8-5.6,11.3-9.4,11.3c-2.5,0-4.3-1.6-4.3-3.7c0-4.3,6.2-3.2,8.7-5.9c1.1-1.1,2.7-4,3.5-6l3.2-8l-16.4-34.8
			c-2.1-4.3-4-6-8.3-6.2v-1.9h21.2v1.9c-6.5,0.2-7.2,2.1-5.1,6.5l11.9,25.8L1808,457.6"/>
		<path class="st4" d="M2325.7,444.9c18.1,0,33.4,14.3,33.4,33.1c0,19.1-15.3,33.4-33.4,33.4c-18.3,0-33.6-14.3-33.6-33.4
			C2292.1,459.2,2307.4,444.9,2325.7,444.9 M2325.7,506.6c15.4,0,27.4-12.2,27.4-28.6c0-15.9-11.9-28.2-27.4-28.2
			c-15.6,0-27.5,12.2-27.5,28.2C2298.2,494.4,2310.1,506.6,2325.7,506.6 M2312.7,458.7h15.1c9.2,0,13.7,3.7,13.7,11.1
			c0,7-4.5,10-10.3,10.7l11.1,17.2h-6.5l-10.5-16.7h-6.4v16.7h-6v-39H2312.7z M2318.7,475.9h6.4c5.4,0,10.2-0.3,10.2-6.4
			c0-5.1-4.5-5.9-8.6-5.9h-8V475.9z"/>
	</g>
</g>
</svg>
